<?xml version="1.0" standalone="no"?>
<!DOCTYPE svg PUBLIC "-//W3C//DTD SVG 20010904//EN"
 "http://www.w3.org/TR/2001/REC-SVG-20010904/DTD/svg10.dtd">
<svg version="1.0" xmlns="http://www.w3.org/2000/svg"
 width="260.000000pt" height="260.000000pt" viewBox="0 0 260.000000 260.000000"
 preserveAspectRatio="xMidYMid meet">
<metadata>
Created by potrace 1.14, written by Peter Selinger 2001-2017
</metadata>
<g transform="translate(0.000000,260.000000) scale(0.100000,-0.100000)"
fill="#000000" stroke="none">
<path d="M1270 1733 c-14 -10 -37 -25 -52 -33 -15 -8 -63 -35 -107 -60 l-81
-45 0 -150 0 -150 33 -19 c17 -10 48 -28 67 -39 41 -24 103 -60 143 -82 24
-14 30 -14 55 0 39 22 101 58 142 82 19 11 50 29 67 39 l33 19 0 150 0 150
-81 45 c-45 25 -101 55 -124 67 -24 12 -46 27 -50 32 -9 15 -17 14 -45 -6z
m131 -87 c51 -29 94 -57 96 -62 2 -5 -11 -15 -28 -23 -28 -12 -35 -12 -68 8
-20 12 -51 29 -68 38 -36 18 -45 16 -134 -38 -33 -20 -40 -20 -68 -8 -17 8
-30 18 -28 23 4 11 177 114 194 115 6 1 53 -23 104 -53z m-121 -138 c0 -51 -2
-54 -40 -75 -21 -13 -44 -23 -49 -23 -7 0 -11 23 -11 53 0 51 2 54 38 75 56
32 62 29 62 -30z m101 30 c38 -21 39 -23 39 -75 0 -30 -4 -53 -11 -53 -5 0
-28 10 -49 23 -38 21 -40 24 -40 75 0 59 5 62 61 30z m-262 -15 c17 -15 21
-31 23 -97 l3 -79 50 -29 c28 -15 58 -31 68 -34 11 -4 17 -17 17 -38 0 -18 -3
-35 -6 -38 -3 -3 -50 19 -105 51 l-99 56 0 113 c0 120 5 131 49 95z m411 -95
l0 -113 -99 -56 c-55 -32 -102 -54 -105 -51 -3 3 -6 20 -6 38 0 21 6 34 18 38
9 3 40 19 67 34 l50 29 3 79 c2 66 6 82 23 97 44 36 49 25 49 -95z m-183 -33
c23 -14 43 -30 43 -34 0 -5 -20 -19 -45 -32 l-45 -24 -45 24 c-25 13 -45 27
-45 32 0 7 78 59 89 59 2 0 24 -11 48 -25z"/>
<path d="M1235 1104 c-6 -2 -8 -41 -5 -101 4 -78 8 -98 20 -98 10 0 16 12 18
38 3 32 7 37 27 37 20 0 26 -7 35 -40 6 -24 17 -40 26 -40 22 0 26 22 10 60
-12 30 -12 38 0 62 20 39 5 73 -36 82 -35 7 -79 7 -95 0z m93 -56 c2 -19 -2
-28 -17 -33 -29 -9 -41 1 -41 36 0 27 3 30 28 27 21 -2 28 -9 30 -30z"/>
</g>
</svg>
